HIERARCHY
ROOT hip
{
	OFFSET 0.000000 0.000000 0.000000
	CHANNELS 6 Xposition Yposition Zposition Xrotation Zrotation Yrotation 
	JOINT abdomen
	{
		OFFSET 0.000000 3.422050 0.000000
		CHANNELS 3 Xrotation Zrotation Yrotation 
		JOINT chest
		{
			OFFSET 0.000000 8.486693 -0.684411
			CHANNELS 3 Xrotation Zrotation Yrotation 
			JOINT neck
			{
				OFFSET 0.000000 10.266162 -0.273764
				CHANNELS 3 Xrotation Zrotation Yrotation 
				JOINT head
				{
					OFFSET 0.000000 3.148285 0.000000
					CHANNELS 3 Xrotation Zrotation Yrotation 
					End Site
					{
						OFFSET 0.000000 3.148289 0.000000
					}
				}
			}
			JOINT lCollar
			{
				OFFSET 3.422053 6.707223 -0.821293
				CHANNELS 3 Yrotation Zrotation Xrotation 
				JOINT lShldr
				{
					OFFSET 3.285171 0.000000 0.000000
					CHANNELS 3 Zrotation Yrotation Xrotation 
					JOINT lForeArm
					{
						OFFSET 10.129278 0.000000 0.000000
						CHANNELS 3 Yrotation Zrotation Xrotation 
						JOINT lHand
						{
							OFFSET 8.486692 0.000000 0.000000
							CHANNELS 3 Zrotation Yrotation Xrotation 
							End Site
							{
								OFFSET 4.106464 0.000000 0.000000
							}
						}
					}
				}
			}
			JOINT rCollar
			{
				OFFSET -3.558935 6.707223 -0.821293
				CHANNELS 3 Yrotation Zrotation Xrotation 
				JOINT rShldr
				{
					OFFSET -3.148289 0.000000 0.000000
					CHANNELS 3 Zrotation Yrotation Xrotation 
					JOINT rForeArm
					{
						OFFSET -10.266159 0.000000 0.000000
						CHANNELS 3 Yrotation Zrotation Xrotation 
						JOINT rHand
						{
							OFFSET -8.349810 0.000000 0.000000
							CHANNELS 3 Zrotation Yrotation Xrotation 
							End Site
							{
								OFFSET -4.106464 0.000000 0.000000
							}
						}
					}
				}
			}
		}
	}
	JOINT lThigh
	{
		OFFSET 5.338403 -1.642589 1.368821
		CHANNELS 3 Xrotation Zrotation Yrotation 
		JOINT lShin
		{
			OFFSET -2.053232 -20.121670 0.000000
			CHANNELS 3 Xrotation Zrotation Yrotation 
			JOINT lFoot
			{
				OFFSET 0.000000 -19.300380 -1.231939
				CHANNELS 3 Xrotation Yrotation Zrotation 
				End Site
				{
					OFFSET 0.000000 -2.463878 4.653993
				}
			}
		}
	}
	JOINT rThigh
	{
		OFFSET -5.338403 -1.642589 1.368821
		CHANNELS 3 Xrotation Zrotation Yrotation 
		JOINT rShin
		{
			OFFSET 2.053232 -20.121670 0.000000
			CHANNELS 3 Xrotation Zrotation Yrotation 
			JOINT rFoot
			{
				OFFSET 0.000000 -19.300380 -1.231939
				CHANNELS 3 Xrotation Yrotation Zrotation 
				End Site
				{
					OFFSET 0.000000 -2.463878 4.653993
				}
			}
		}
	}
}
MOTION
Frames: 15
Frame Time: 0.033325
0.000000 43.528500 0.000000 0.000000 0.000000 0.000000 0.000000 0.000000 0.000000 0.000000 0.000000 0.000000 0.000000 0.000000 0.000000 0.000000 0.000000 0.000000 0.000000 0.000000 0.000000 0.000000 0.000000 0.000000 0.000000 0.000000 0.000000 0.000000 0.000000 0.000000 0.000000 0.000000 0.000000 0.000000 0.000000 0.000000 0.000000 0.000000 0.000000 0.000000 0.000000 0.000000 0.000000 0.000000 0.000000 0.000000 0.000000 0.000000 0.000000 0.000000 0.000000 0.000000 0.000000 0.000000 0.000000 0.000000 0.000000 0.000000 0.000000 0.000000 
4.959171 16.557928 -10.954638 0.000000 0.000000 -67.003799 -0.361033 -0.089071 13.581678 12.315117 0.118034 14.949452 0.732713 -0.155336 -0.044707 -0.152121 0.019225 -0.005271 -62.192043 -12.009912 -9.295506 -13.595694 -31.993153 6.856907 -41.889271 -9.905341 2.219384 0.998984 -0.003018 30.996704 22.906595 30.193954 -8.388016 20.757071 22.954788 4.228477 23.921261 3.820468 -1.977400 -27.283638 -15.321714 -26.798475 -34.356548 57.091099 14.385845 145.193680 5.531421 -0.735253 56.309616 8.205308 3.192663 -49.252388 -20.480976 -0.520319 140.403717 -16.589750 2.585393 56.309589 -8.210064 -3.194125 
4.959171 16.557928 -10.954638 0.000000 0.000000 -67.003807 0.019544 -0.091861 13.571382 11.763239 0.109930 14.930230 1.457966 -0.314413 -0.052998 -0.301582 0.040919 -0.006485 -61.862663 -12.137048 -9.129088 -13.595695 -31.993153 6.856908 -42.095016 -9.965510 2.184178 0.764563 0.192282 31.011477 22.726667 30.211922 -8.271691 20.988064 23.061703 4.314220 24.166264 4.948905 -2.028104 -29.636526 -15.715017 -25.890539 -34.356556 57.091099 14.385842 145.193680 5.531421 -0.735253 56.309616 8.205308 3.192663 -49.252388 -20.480976 -0.520319 140.403717 -16.589750 2.585392 56.309589 -8.210064 -3.194125 
4.959171 16.557928 -10.954638 0.000000 0.000000 -67.003799 0.400167 -0.094583 13.561064 11.211226 0.101638 14.911087 2.184243 -0.473588 -0.063317 -0.451051 0.062611 -0.007755 -61.532722 -12.263260 -8.961831 -13.595693 -31.993147 6.856906 -42.300827 -10.025555 2.148745 0.530171 0.387655 31.025452 22.546654 30.229570 -8.155274 21.219423 23.168295 4.400502 24.413006 6.078380 -2.083821 -32.010853 -16.073542 -24.960588 -34.356548 57.091099 14.385845 145.193665 5.531420 -0.735253 56.309616 8.205308 3.192663 -49.252388 -20.480976 -0.520319 140.403702 -16.589748 2.585393 56.309589 -8.210064 -3.194125 
4.959171 16.557928 -10.954638 0.000000 0.000000 -67.003799 0.780829 -0.097237 13.550732 10.659100 0.093161 14.892018 2.911496 -0.632822 -0.075670 -0.600529 0.084301 -0.009082 -61.202225 -12.388540 -8.793736 -13.595694 -31.993153 6.856907 -42.506733 -10.085478 2.113086 0.295805 0.583097 31.038631 22.366560 30.246912 -8.038768 21.451153 23.274576 4.487326 24.661650 7.208642 -2.144625 -34.404034 -16.395765 -24.010756 -34.356556 57.091099 14.385842 145.193680 5.531421 -0.735253 56.309616 8.205308 3.192663 -49.252388 -20.480976 -0.520319 140.403717 -16.589750 2.585393 56.309589 -8.210064 -3.194125 
4.959171 16.557928 -10.954638 0.000000 0.000000 -67.003799 1.161521 -0.099822 13.540377 10.106886 0.084499 14.873026 3.639676 -0.792077 -0.090062 -0.750015 0.105988 -0.010466 -60.871151 -12.512877 -8.624811 -13.595695 -31.993153 6.856908 -42.712715 -10.145273 2.077199 0.061462 0.778600 31.051003 22.186378 30.263933 -7.922171 21.683247 23.380535 4.574688 24.912355 8.339440 -2.210599 -36.813301 -16.680332 -23.043362 -34.356552 57.091103 14.385849 145.193680 5.531421 -0.735253 56.309620 8.205308 3.192663 -49.252388 -20.480978 -0.520319 140.403717 -16.589750 2.585392 56.309589 -8.210064 -3.194125 
4.959171 16.557928 -10.954638 0.000000 0.000000 -67.003799 1.542235 -0.102339 13.530007 9.554612 0.075653 14.854123 4.368737 -0.951312 -0.106497 -0.899508 0.127673 -0.011907 -60.539532 -12.636262 -8.455061 -13.595694 -31.993153 6.856907 -42.918777 -10.204945 2.041088 -0.172859 0.974160 31.062584 22.006121 30.280640 -7.805486 21.915707 23.486170 4.662589 25.165293 9.470518 -2.281831 -39.235706 -16.926071 -22.060894 -34.356537 57.091095 14.385849 145.193680 5.531421 -0.735253 56.309608 8.205308 3.192664 -49.252380 -20.480976 -0.520319 140.403702 -16.589748 2.585393 56.309582 -8.210063 -3.194125 
4.959171 16.557928 -10.954638 0.000000 0.000000 -67.003799 1.922961 -0.104786 13.519619 9.002300 0.066625 14.835296 5.098626 -1.110488 -0.124979 -1.049008 0.149354 -0.013404 -60.207382 -12.758692 -8.284497 -13.595694 -31.993153 6.856907 -43.124920 -10.264487 2.004752 -0.407160 1.169769 31.073359 21.825785 30.297033 -7.688717 22.148537 23.591476 4.751029 25.420620 10.601620 -2.358415 -41.668159 -17.132013 -21.065987 -34.356548 57.091099 14.385845 145.193680 5.531421 -0.735253 56.309616 8.205308 3.192663 -49.252388 -20.480976 -0.520319 140.403717 -16.589750 2.585393 56.309589 -8.210064 -3.194125 
4.959171 16.557928 -10.954638 0.000000 0.000000 -67.003799 2.303692 -0.107165 13.509213 8.449984 0.057416 14.816566 5.829296 -1.269565 -0.145508 -1.198514 0.171033 -0.014957 -59.874683 -12.880154 -8.113122 -13.595694 -31.993153 6.856907 -43.331142 -10.323900 1.968191 -0.641444 1.365423 31.083344 21.645369 30.313105 -7.571863 22.381725 23.696451 4.840007 25.678520 11.732490 -2.440454 -44.107468 -17.297409 -20.061399 -34.356556 57.091099 14.385842 145.193680 5.531421 -0.735253 56.309616 8.205309 3.192663 -49.252388 -20.480978 -0.520320 140.403717 -16.589750 2.585393 56.309589 -8.210065 -3.194126 
4.959171 16.557928 -10.954638 0.000000 0.000000 -67.003799 2.684420 -0.109474 13.498795 7.897679 0.048026 14.797923 6.560696 -1.428504 -0.168086 -1.348027 0.192708 -0.016567 -59.541466 -13.000645 -7.940946 -13.595694 -31.993153 6.856907 -43.537441 -10.383183 1.931405 -0.875713 1.561114 31.092524 21.464884 30.328857 -7.454929 22.615286 23.801098 4.929524 25.939157 12.862865 -2.528057 -46.550323 -17.421724 -19.049978 -34.356548 57.091099 14.385842 145.193680 5.531421 -0.735253 56.309616 8.205308 3.192663 -49.252388 -20.480976 -0.520319 140.403717 -16.589750 2.585393 56.309589 -8.210064 -3.194125 
4.959171 16.557928 -10.954638 0.000000 0.000000 -67.003799 3.065135 -0.111714 13.488361 7.345416 0.038458 14.779366 7.292778 -1.587263 -0.192714 -1.497544 0.214379 -0.018234 -59.207722 -13.120150 -7.767974 -13.595694 -31.993153 6.856907 -43.743813 -10.442336 1.894398 -1.109968 1.756837 31.100908 21.284323 30.344288 -7.337912 22.849209 23.905409 5.019577 26.202730 13.992494 -2.621342 -48.993416 -17.504679 -18.034634 -34.356548 57.091099 14.385845 145.193680 5.531421 -0.735253 56.309616 8.205308 3.192663 -49.252388 -20.480976 -0.520320 140.403717 -16.589750 2.585393 56.309589 -8.210064 -3.194125 
4.959171 16.557928 -10.954638 0.000000 0.000000 -67.003799 3.445830 -0.113885 13.477917 6.793222 0.028713 14.760913 8.025487 -1.745804 -0.219390 -1.647067 0.236047 -0.019958 -58.873459 -13.238667 -7.594216 -13.595694 -31.993153 6.856907 -43.950264 -10.501357 1.857166 -1.344213 1.952585 31.108486 21.103697 30.359413 -7.220821 23.083494 24.009375 5.110165 26.469421 15.121110 -2.720436 -51.433350 -17.546206 -17.018293 -34.356548 57.091099 14.385842 145.193665 5.531420 -0.735253 56.309616 8.205308 3.192664 -49.252384 -20.480972 -0.520319 140.403702 -16.589748 2.585393 56.309589 -8.210064 -3.194125 
4.959171 16.557928 -10.954638 0.000000 0.000000 -67.003799 3.826496 -0.115986 13.467456 6.241121 0.018792 14.742556 8.758776 -1.904085 -0.248112 -1.796595 0.257711 -0.021738 -58.538696 -13.356187 -7.419675 -13.595694 -31.993153 6.856907 -44.156776 -10.560241 1.819712 -1.578448 2.148353 31.115265 20.922998 30.374214 -7.103654 23.318140 24.112999 5.201290 26.739429 16.248459 -2.825471 -53.866817 -17.546494 -16.003889 -34.356541 57.091095 14.385845 145.193680 5.531421 -0.735253 56.309616 8.205308 3.192663 -49.252384 -20.480974 -0.520318 140.403717 -16.589750 2.585392 56.309589 -8.210064 -3.194125 
4.959171 16.557928 -10.954638 0.000000 0.000000 -67.003799 4.207125 -0.118017 13.456983 5.689137 0.008697 14.724297 9.492590 -2.062067 -0.278878 -1.946126 0.279370 -0.023575 -58.203423 -13.472699 -7.244363 -13.595694 -31.993153 6.856907 -44.363373 -10.618994 1.782038 -1.812677 2.344134 31.121243 20.742241 30.388700 -6.986414 23.553154 24.216284 5.292950 27.012957 17.374281 -2.936593 -56.290504 -17.505947 -14.994301 -34.356548 57.091099 14.385845 145.193680 5.531421 -0.735253 56.309616 8.205308 3.192663 -49.252388 -20.480978 -0.520319 140.403717 -16.589750 2.585393 56.309593 -8.210065 -3.194125 
4.959171 16.557928 -10.954638 0.000000 0.000000 -67.003799 4.587706 -0.119978 13.446494 5.137299 -0.001571 14.706139 10.226882 -2.219710 -0.311684 -2.095661 0.301025 -0.025468 -57.867657 -13.588198 -7.068285 -13.595695 -31.993153 6.856908 -44.570030 -10.677607 1.744141 -2.046901 2.539923 31.126423 20.561413 30.402857 -6.869098 23.788517 24.319212 5.385142 27.290224 18.498318 -3.053955 -58.701195 -17.425201 -13.992334 -34.356556 57.091106 14.385845 145.193680 5.531421 -0.735253 56.309620 8.205309 3.192663 -49.252392 -20.480978 -0.520317 140.403717 -16.589750 2.585393 56.309589 -8.210065 -3.194126 
